<?xml version="1.0" encoding="UTF-8" standalone="no"?>
<!DOCTYPE svg PUBLIC "-//W3C//DTD SVG 1.1//EN" "http://www.w3.org/Graphics/SVG/1.1/DTD/svg11.dtd">
<svg width="100%" height="100%" viewBox="0 0 260 120" version="1.1" xmlns="http://www.w3.org/2000/svg" xmlns:xlink="http://www.w3.org/1999/xlink" xml:space="preserve" xmlns:serif="http://www.serif.com/" style="fill-rule:evenodd;clip-rule:evenodd;stroke-linecap:round;stroke-linejoin:round;stroke-miterlimit:1.5;">
    <g transform="matrix(0.583541,0,0,0.583541,-2.92145,-8.75561)">
        <g id="row-tn" serif:id="row tn" transform="matrix(1,0,0,1,-73,84)">
            <path d="M168,87L168,135" style="fill:none;stroke:rgb(178,178,178);stroke-width:2.17px;"/>
            <g transform="matrix(1,0,0,1,41.5714,0)">
                <path d="M168,87L168,135" style="fill:none;stroke:rgb(178,178,178);stroke-width:2.17px;"/>
            </g>
            <g transform="matrix(1,0,0,1,83.1429,0)">
                <path d="M168,87L168,135" style="fill:none;stroke:rgb(178,178,178);stroke-width:2.17px;"/>
            </g>
            <g transform="matrix(1,0,0,1,124.714,0)">
                <path d="M168,87L168,135" style="fill:none;stroke:rgb(178,178,178);stroke-width:2.17px;"/>
            </g>
            <g transform="matrix(1,0,0,1,166.286,0)">
                <path d="M168,87L168,135" style="fill:none;stroke:rgb(178,178,178);stroke-width:2.17px;"/>
            </g>
            <g transform="matrix(1,0,0,1,207.857,0)">
                <path d="M168,87L168,135" style="fill:none;stroke:rgb(178,178,178);stroke-width:2.17px;"/>
            </g>
            <g transform="matrix(1,0,0,1,249.429,0)">
                <path d="M168,87L168,135" style="fill:none;stroke:rgb(178,178,178);stroke-width:2.17px;"/>
            </g>
            <g transform="matrix(1,0,0,1,291,0)">
                <path d="M168,87L168,135" style="fill:none;stroke:rgb(178,178,178);stroke-width:2.17px;"/>
            </g>
            <g transform="matrix(1,0,0,0.151899,76,80.9241)">
                <rect x="54" y="40" width="367" height="316" style="fill:none;stroke:rgb(178,178,178);stroke-width:3.03px;"/>
            </g>
        </g>
        <g id="row-t3" serif:id="row t3" transform="matrix(1,0,0,1,-73,-12)">
            <path d="M168,87L168,135" style="fill:none;stroke:black;stroke-width:2.17px;"/>
            <g transform="matrix(1,0,0,1,41.5714,0)">
                <path d="M168,87L168,135" style="fill:none;stroke:black;stroke-width:2.17px;"/>
            </g>
            <g transform="matrix(1,0,0,1,83.1429,0)">
                <path d="M168,87L168,135" style="fill:none;stroke:black;stroke-width:2.17px;"/>
            </g>
            <g transform="matrix(1,0,0,1,124.714,0)">
                <path d="M168,87L168,135" style="fill:none;stroke:black;stroke-width:2.17px;"/>
            </g>
            <g transform="matrix(1,0,0,1,166.286,0)">
                <path d="M168,87L168,135" style="fill:none;stroke:black;stroke-width:2.17px;"/>
            </g>
            <g transform="matrix(1,0,0,1,207.857,0)">
                <path d="M168,87L168,135" style="fill:none;stroke:black;stroke-width:2.17px;"/>
            </g>
            <g transform="matrix(1,0,0,1,249.429,0)">
                <path d="M168,87L168,135" style="fill:none;stroke:black;stroke-width:2.17px;"/>
            </g>
            <g transform="matrix(1,0,0,1,291,0)">
                <path d="M168,87L168,135" style="fill:none;stroke:black;stroke-width:2.17px;"/>
            </g>
            <g transform="matrix(1,0,0,0.151899,76,80.9241)">
                <rect x="54" y="40" width="367" height="316" style="fill:none;stroke:black;stroke-width:3.03px;"/>
            </g>
        </g>
        <g id="row-t2" serif:id="row t2" transform="matrix(1,0,0,1,-73,36)">
            <path d="M168,87L168,135" style="fill:none;stroke:black;stroke-width:2.17px;"/>
            <g transform="matrix(1,0,0,1,41.5714,0)">
                <path d="M168,87L168,135" style="fill:none;stroke:black;stroke-width:2.17px;"/>
            </g>
            <g transform="matrix(1,0,0,1,83.1429,0)">
                <path d="M168,87L168,135" style="fill:none;stroke:black;stroke-width:2.17px;"/>
            </g>
            <g transform="matrix(1,0,0,1,124.714,0)">
                <path d="M168,87L168,135" style="fill:none;stroke:black;stroke-width:2.17px;"/>
            </g>
            <g transform="matrix(1,0,0,1,166.286,0)">
                <path d="M168,87L168,135" style="fill:none;stroke:black;stroke-width:2.17px;"/>
            </g>
            <g transform="matrix(1,0,0,1,207.857,0)">
                <path d="M168,87L168,135" style="fill:none;stroke:black;stroke-width:2.17px;"/>
            </g>
            <g transform="matrix(1,0,0,1,249.429,0)">
                <path d="M168,87L168,135" style="fill:none;stroke:black;stroke-width:2.17px;"/>
            </g>
            <g transform="matrix(1,0,0,1,291,0)">
                <path d="M168,87L168,135" style="fill:none;stroke:black;stroke-width:2.17px;"/>
            </g>
            <g transform="matrix(1,0,0,0.151899,76,80.9241)">
                <rect x="54" y="40" width="367" height="316" style="fill:none;stroke:black;stroke-width:3.03px;"/>
            </g>
        </g>
        <g id="row-t1" serif:id="row t1" transform="matrix(1,0,0,1,-73,-60)">
            <path d="M168,87L168,135" style="fill:none;stroke:black;stroke-width:2.17px;"/>
            <g transform="matrix(1,0,0,1,41.5714,0)">
                <path d="M168,87L168,135" style="fill:none;stroke:black;stroke-width:2.17px;"/>
            </g>
            <g transform="matrix(1,0,0,1,83.1429,0)">
                <path d="M168,87L168,135" style="fill:none;stroke:black;stroke-width:2.17px;"/>
            </g>
            <g transform="matrix(1,0,0,1,124.714,0)">
                <path d="M168,87L168,135" style="fill:none;stroke:black;stroke-width:2.17px;"/>
            </g>
            <g transform="matrix(1,0,0,1,166.286,0)">
                <path d="M168,87L168,135" style="fill:none;stroke:black;stroke-width:2.17px;"/>
            </g>
            <g transform="matrix(1,0,0,1,207.857,0)">
                <path d="M168,87L168,135" style="fill:none;stroke:black;stroke-width:2.17px;"/>
            </g>
            <g transform="matrix(1,0,0,1,249.429,0)">
                <path d="M168,87L168,135" style="fill:none;stroke:black;stroke-width:2.17px;"/>
            </g>
            <g transform="matrix(1,0,0,1,291,0)">
                <path d="M168,87L168,135" style="fill:none;stroke:black;stroke-width:2.17px;"/>
            </g>
            <g transform="matrix(1,0,0,0.151899,76,80.9241)">
                <rect x="54" y="40" width="367" height="316" style="fill:none;stroke:black;stroke-width:3.03px;"/>
            </g>
        </g>
        <g transform="matrix(1,0,0,1,-79,-60.5)">
            <g transform="matrix(32,0,0,32,102,122.844)">
                <path d="M0.462,-0.077C0.424,-0.02 0.372,0.009 0.307,0.009C0.264,0.009 0.228,-0.005 0.199,-0.034C0.17,-0.064 0.155,-0.107 0.155,-0.164L0.155,-0.482L0.063,-0.482L0.063,-0.553L0.155,-0.553L0.155,-0.745L0.238,-0.745L0.238,-0.553L0.425,-0.553L0.425,-0.482L0.238,-0.482L0.238,-0.158C0.238,-0.128 0.245,-0.105 0.258,-0.089C0.271,-0.074 0.289,-0.066 0.312,-0.066C0.35,-0.066 0.38,-0.085 0.399,-0.123L0.462,-0.077Z" style="fill-rule:nonzero;"/>
            </g>
            <g transform="matrix(32,0,0,32,118,122.844)">
                <path d="M0.317,0.076L0.247,0.076L0.247,-0.272L0.152,-0.196L0.118,-0.248L0.253,-0.356L0.317,-0.356L0.317,0.076Z" style="fill-rule:nonzero;"/>
            </g>
        </g>
        <g transform="matrix(1,0,0,1,-79,-12.5)">
            <g transform="matrix(32,0,0,32,102,122.844)">
                <path d="M0.462,-0.077C0.424,-0.02 0.372,0.009 0.307,0.009C0.264,0.009 0.228,-0.005 0.199,-0.034C0.17,-0.064 0.155,-0.107 0.155,-0.164L0.155,-0.482L0.063,-0.482L0.063,-0.553L0.155,-0.553L0.155,-0.745L0.238,-0.745L0.238,-0.553L0.425,-0.553L0.425,-0.482L0.238,-0.482L0.238,-0.158C0.238,-0.128 0.245,-0.105 0.258,-0.089C0.271,-0.074 0.289,-0.066 0.312,-0.066C0.35,-0.066 0.38,-0.085 0.399,-0.123L0.462,-0.077Z" style="fill-rule:nonzero;"/>
            </g>
            <g transform="matrix(32,0,0,32,118,122.844)">
                <path d="M0.375,0.071L0.132,0.071L0.132,0.046C0.132,-0.004 0.157,-0.056 0.207,-0.112L0.274,-0.187C0.295,-0.209 0.305,-0.232 0.305,-0.258C0.305,-0.272 0.3,-0.284 0.291,-0.292C0.282,-0.301 0.269,-0.305 0.252,-0.305C0.22,-0.305 0.197,-0.287 0.184,-0.252L0.125,-0.286C0.155,-0.34 0.197,-0.367 0.252,-0.367C0.29,-0.367 0.32,-0.357 0.342,-0.336C0.364,-0.315 0.375,-0.288 0.375,-0.256C0.375,-0.219 0.36,-0.183 0.329,-0.149L0.261,-0.074C0.227,-0.037 0.209,-0.009 0.207,0.01L0.375,0.01L0.375,0.071Z" style="fill-rule:nonzero;"/>
            </g>
        </g>
        <g transform="matrix(1,0,0,1,-79,35.5)">
            <g transform="matrix(32,0,0,32,102,122.844)">
                <path d="M0.462,-0.077C0.424,-0.02 0.372,0.009 0.307,0.009C0.264,0.009 0.228,-0.005 0.199,-0.034C0.17,-0.064 0.155,-0.107 0.155,-0.164L0.155,-0.482L0.063,-0.482L0.063,-0.553L0.155,-0.553L0.155,-0.745L0.238,-0.745L0.238,-0.553L0.425,-0.553L0.425,-0.482L0.238,-0.482L0.238,-0.158C0.238,-0.128 0.245,-0.105 0.258,-0.089C0.271,-0.074 0.289,-0.066 0.312,-0.066C0.35,-0.066 0.38,-0.085 0.399,-0.123L0.462,-0.077Z" style="fill-rule:nonzero;"/>
            </g>
            <g transform="matrix(32,0,0,32,118,122.844)">
                <path d="M0.384,-0.055C0.384,-0.019 0.372,0.012 0.347,0.038C0.322,0.064 0.291,0.077 0.253,0.077C0.196,0.077 0.152,0.049 0.121,-0.007L0.173,-0.044C0.19,-0.004 0.217,0.016 0.252,0.016C0.271,0.016 0.286,0.009 0.297,-0.004C0.308,-0.018 0.314,-0.036 0.314,-0.06C0.314,-0.084 0.308,-0.101 0.295,-0.112C0.282,-0.122 0.268,-0.127 0.252,-0.127L0.218,-0.127L0.218,-0.189L0.252,-0.189C0.268,-0.189 0.28,-0.194 0.29,-0.203C0.3,-0.212 0.305,-0.227 0.305,-0.248C0.305,-0.266 0.3,-0.28 0.29,-0.29C0.28,-0.3 0.268,-0.305 0.252,-0.305C0.216,-0.305 0.191,-0.286 0.175,-0.25L0.123,-0.285C0.156,-0.34 0.199,-0.367 0.253,-0.367C0.287,-0.367 0.316,-0.356 0.34,-0.334C0.363,-0.312 0.375,-0.284 0.375,-0.25C0.375,-0.205 0.356,-0.175 0.319,-0.158C0.362,-0.141 0.384,-0.107 0.384,-0.055Z" style="fill-rule:nonzero;"/>
            </g>
        </g>
        <g transform="matrix(1,0,0,1,-79,83.5)">
            <g transform="matrix(32,0,0,32,102,122.844)">
                <path d="M0.462,-0.077C0.424,-0.02 0.372,0.009 0.307,0.009C0.264,0.009 0.228,-0.005 0.199,-0.034C0.17,-0.064 0.155,-0.107 0.155,-0.164L0.155,-0.482L0.063,-0.482L0.063,-0.553L0.155,-0.553L0.155,-0.745L0.238,-0.745L0.238,-0.553L0.425,-0.553L0.425,-0.482L0.238,-0.482L0.238,-0.158C0.238,-0.128 0.245,-0.105 0.258,-0.089C0.271,-0.074 0.289,-0.066 0.312,-0.066C0.35,-0.066 0.38,-0.085 0.399,-0.123L0.462,-0.077Z" style="fill:rgb(178,178,178);fill-rule:nonzero;"/>
            </g>
            <g transform="matrix(32,0,0,32,118,122.844)">
                <path d="M0.313,-0.111C0.313,-0.16 0.294,-0.184 0.257,-0.184C0.229,-0.184 0.206,-0.175 0.187,-0.156L0.187,0.076L0.116,0.076L0.116,-0.24L0.187,-0.24L0.187,-0.206C0.21,-0.232 0.24,-0.246 0.276,-0.246C0.348,-0.246 0.383,-0.2 0.383,-0.108L0.383,0.076L0.313,0.076L0.313,-0.111Z" style="fill:rgb(178,178,178);fill-rule:nonzero;"/>
            </g>
        </g>
        <g id="dots-t1" serif:id="dots t1" transform="matrix(1,0,0,1,-70,-62)">
            <g transform="matrix(1,0,0,1,-46,-193.5)">
                <circle cx="191.5" cy="306.5" r="5.5" style="fill:rgb(0,41,255);"/>
            </g>
            <g transform="matrix(1,0,0,1,-4.75,-193.5)">
                <circle cx="191.5" cy="306.5" r="5.5" style="fill:rgb(0,41,255);"/>
            </g>
            <g transform="matrix(1,0,0,1,36.5,-193.5)">
                <circle cx="191.5" cy="306.5" r="5.5" style="fill:rgb(0,41,255);"/>
            </g>
            <g transform="matrix(1,0,0,1,77.75,-193.5)">
                <circle cx="191.5" cy="306.5" r="5.5" style="fill:rgb(0,41,255);"/>
            </g>
            <g transform="matrix(1,0,0,1,119,-193.5)">
                <circle cx="191.5" cy="306.5" r="5.5" style="fill:rgb(0,41,255);"/>
            </g>
            <g transform="matrix(1,0,0,1,160.25,-193.5)">
                <circle cx="191.5" cy="306.5" r="5.5" style="fill:rgb(0,41,255);"/>
            </g>
            <g transform="matrix(1,0,0,1,201.5,-193.5)">
                <circle cx="191.5" cy="306.5" r="5.5" style="fill:rgb(0,41,255);"/>
            </g>
            <g transform="matrix(1,0,0,1,242.75,-193.5)">
                <circle cx="191.5" cy="306.5" r="5.5" style="fill:rgb(0,41,255);"/>
            </g>
            <g transform="matrix(1,0,0,1,284,-193.5)">
                <circle cx="191.5" cy="306.5" r="5.5" style="fill:rgb(0,41,255);"/>
            </g>
        </g>
        <g id="dots-t2" serif:id="dots t2" transform="matrix(1,0,0,1,-70,-60)">
            <g transform="matrix(1,0,0,1,-46,-147.5)">
                <circle cx="191.5" cy="306.5" r="5.5" style="fill:rgb(0,41,255);"/>
            </g>
            <g transform="matrix(1,0,0,1,-4.75,-147.5)">
                <circle cx="191.5" cy="306.5" r="5.5" style="fill:rgb(0,41,255);"/>
            </g>
            <g transform="matrix(1,0,0,1,36.5,-147.5)">
                <circle cx="191.5" cy="306.5" r="5.5" style="fill:rgb(0,41,255);"/>
            </g>
            <g transform="matrix(1,0,0,1,77.75,-147.5)">
                <circle cx="191.5" cy="306.5" r="5.5" style="fill:rgb(0,41,255);"/>
            </g>
            <g transform="matrix(1,0,0,1,119,-147.5)">
                <circle cx="191.5" cy="306.5" r="5.5" style="fill:rgb(0,41,255);"/>
            </g>
        </g>
        <g id="dots-t3" serif:id="dots t3" transform="matrix(1,0,0,1,-70,-60)">
            <g transform="matrix(1,0,0,1,-46,-99.5)">
                <circle cx="191.5" cy="306.5" r="5.5" style="fill:rgb(0,41,255);"/>
            </g>
            <g transform="matrix(1,0,0,1,-4.75,-99.5)">
                <circle cx="191.5" cy="306.5" r="5.5" style="fill:rgb(0,41,255);"/>
            </g>
            <g transform="matrix(1,0,0,1,36.5,-99.5)">
                <circle cx="191.5" cy="306.5" r="5.5" style="fill:rgb(0,41,255);"/>
            </g>
            <g transform="matrix(1,0,0,1,77.75,-99.5)">
                <circle cx="191.5" cy="306.5" r="5.5" style="fill:rgb(0,41,255);"/>
            </g>
            <g transform="matrix(1,0,0,1,119,-99.5)">
                <circle cx="191.5" cy="306.5" r="5.5" style="fill:rgb(0,41,255);"/>
            </g>
            <g transform="matrix(1,0,0,1,160.25,-99.5)">
                <circle cx="191.5" cy="306.5" r="5.5" style="fill:rgb(0,41,255);"/>
            </g>
            <g transform="matrix(1,0,0,1,201.5,-99.5)">
                <circle cx="191.5" cy="306.5" r="5.5" style="fill:rgb(0,41,255);"/>
            </g>
        </g>
        <g id="dots-tn" serif:id="dots tn" transform="matrix(1,0,0,1,-70,-60)">
            <g transform="matrix(1,0,0,1,-46,-51.5)">
                <circle cx="191.5" cy="306.5" r="5.5" style="fill:rgb(155,171,255);"/>
            </g>
            <g transform="matrix(1,0,0,1,-4.75,-51.5)">
                <circle cx="191.5" cy="306.5" r="5.5" style="fill:rgb(155,171,255);"/>
            </g>
            <g transform="matrix(1,0,0,1,36.5,-51.5)">
                <circle cx="191.5" cy="306.5" r="5.5" style="fill:rgb(155,171,255);"/>
            </g>
        </g>
    </g>
</svg>
